<svg width="300" height="300" viewBox="0 0 132 132" fill="none" xmlns="http://www.w3.org/2000/svg">
<defs>
<clipPath id="clip0_50_17">
<rect width="132" height="132" fill="white"/>
</clipPath>
<linearGradient id="pulsingGradient" x1="0%" y1="0%" x2="100%" y2="100%">
<stop offset="0%" style="stop-color:#1C8437;stop-opacity:1">
<animate attributeName="stop-color" values="#1C8437;#2ECC40;#1C8437" dur="2.4s" repeatCount="indefinite"/>
</stop>
<stop offset="50%" style="stop-color:#2ECC40;stop-opacity:1">
<animate attributeName="stop-color" values="#2ECC40;#39FF14;#2ECC40" dur="2.4s" repeatCount="indefinite"/>
</stop>
<stop offset="100%" style="stop-color:#1C8437;stop-opacity:1">
<animate attributeName="stop-color" values="#1C8437;#2ECC40;#1C8437" dur="2.4s" repeatCount="indefinite"/>
</stop>
</linearGradient>
</defs>
<g clip-path="url(#clip0_50_17)">
<path fill-rule="evenodd" clip-rule="evenodd" d="M74.9574 45.6515L89.8784 60.6917L128.708 21.7641L113.787 6.72388L74.9574 45.6515Z" fill="url(#pulsingGradient)"/>
<path fill-rule="evenodd" clip-rule="evenodd" d="M105.269 63.9946C105.328 64.7024 105.328 65.3512 105.328 66.059C105.328 88 87.5874 105.812 65.7346 105.812C43.8818 105.812 26.1411 88 26.1411 66.059C26.1411 44.118 43.8818 26.3056 65.7346 26.3056C68.7893 26.3056 71.7893 26.6595 74.6637 27.3083L94.9891 6.9008C86.1775 2.47721 76.2498 0 65.7346 0C29.4308 0 0 29.5496 0 66C0 102.45 29.4308 132 65.7346 132C102.038 132 131.469 102.509 131.469 66.059C131.469 57.6247 129.883 49.5442 127.005 42.1716L105.269 63.9946Z" fill="#4C4D4D"/>
</g>
</svg>